<mxfile host="65bd71144e">
    <diagram id="bYln3g30RK00waNg3dri" name="Cat">
        <mxGraphModel dx="361" dy="216" grid="1" gridSize="10" guides="1" tooltips="1" connect="1" arrows="1" fold="1" page="1" pageScale="1" pageWidth="827" pageHeight="1169" math="0" shadow="0">
            <root>
                <mxCell id="0"/>
                <mxCell id="1" parent="0"/>
                <mxCell id="2" value="Cat" style="swimlane;fontStyle=1;align=center;verticalAlign=top;childLayout=stackLayout;horizontal=1;startSize=26;horizontalStack=0;resizeParent=1;resizeParentMax=0;resizeLast=0;collapsible=1;marginBottom=0;" parent="1" vertex="1">
                    <mxGeometry x="100" y="180" width="210" height="164" as="geometry"/>
                </mxCell>
                <mxCell id="3" value="- name: String" style="text;strokeColor=none;fillColor=none;align=left;verticalAlign=top;spacingLeft=4;spacingRight=4;overflow=hidden;rotatable=0;points=[[0,0.5],[1,0.5]];portConstraint=eastwest;" parent="2" vertex="1">
                    <mxGeometry y="26" width="210" height="26" as="geometry"/>
                </mxCell>
                <mxCell id="6" value="- furColor: String" style="text;strokeColor=none;fillColor=none;align=left;verticalAlign=top;spacingLeft=4;spacingRight=4;overflow=hidden;rotatable=0;points=[[0,0.5],[1,0.5]];portConstraint=eastwest;" parent="2" vertex="1">
                    <mxGeometry y="52" width="210" height="26" as="geometry"/>
                </mxCell>
                <mxCell id="7" value="- age: int" style="text;strokeColor=none;fillColor=none;align=left;verticalAlign=top;spacingLeft=4;spacingRight=4;overflow=hidden;rotatable=0;points=[[0,0.5],[1,0.5]];portConstraint=eastwest;" parent="2" vertex="1">
                    <mxGeometry y="78" width="210" height="26" as="geometry"/>
                </mxCell>
                <mxCell id="4" value="" style="line;strokeWidth=1;fillColor=none;align=left;verticalAlign=middle;spacingTop=-1;spacingLeft=3;spacingRight=3;rotatable=0;labelPosition=right;points=[];portConstraint=eastwest;" parent="2" vertex="1">
                    <mxGeometry y="104" width="210" height="8" as="geometry"/>
                </mxCell>
                <mxCell id="9" value="+ getFurColor(): String" style="text;strokeColor=none;fillColor=none;align=left;verticalAlign=top;spacingLeft=4;spacingRight=4;overflow=hidden;rotatable=0;points=[[0,0.5],[1,0.5]];portConstraint=eastwest;" parent="2" vertex="1">
                    <mxGeometry y="112" width="210" height="26" as="geometry"/>
                </mxCell>
                <mxCell id="11" value="+ getAge(): int" style="text;strokeColor=none;fillColor=none;align=left;verticalAlign=top;spacingLeft=4;spacingRight=4;overflow=hidden;rotatable=0;points=[[0,0.5],[1,0.5]];portConstraint=eastwest;" parent="2" vertex="1">
                    <mxGeometry y="138" width="210" height="26" as="geometry"/>
                </mxCell>
            </root>
        </mxGraphModel>
    </diagram>
    <diagram name="Cat_2" id="inNL3M4gJRJcqv8mNzKf">
        <mxGraphModel dx="635" dy="357" grid="1" gridSize="10" guides="1" tooltips="1" connect="1" arrows="1" fold="1" page="1" pageScale="1" pageWidth="827" pageHeight="1169" math="0" shadow="0">
            <root>
                <mxCell id="YcUkZsGcL5mmVCibDzss-0"/>
                <mxCell id="YcUkZsGcL5mmVCibDzss-1" parent="YcUkZsGcL5mmVCibDzss-0"/>
                <mxCell id="YcUkZsGcL5mmVCibDzss-2" value="Cat" style="swimlane;fontStyle=1;align=center;verticalAlign=top;childLayout=stackLayout;horizontal=1;startSize=26;horizontalStack=0;resizeParent=1;resizeParentMax=0;resizeLast=0;collapsible=1;marginBottom=0;" vertex="1" parent="YcUkZsGcL5mmVCibDzss-1">
                    <mxGeometry x="100" y="180" width="210" height="166" as="geometry"/>
                </mxCell>
                <mxCell id="YcUkZsGcL5mmVCibDzss-3" value="- name: String" style="text;strokeColor=none;fillColor=none;align=left;verticalAlign=top;spacingLeft=4;spacingRight=4;overflow=hidden;rotatable=0;points=[[0,0.5],[1,0.5]];portConstraint=eastwest;" vertex="1" parent="YcUkZsGcL5mmVCibDzss-2">
                    <mxGeometry y="26" width="210" height="26" as="geometry"/>
                </mxCell>
                <mxCell id="YcUkZsGcL5mmVCibDzss-4" value="- furColor: String" style="text;strokeColor=none;fillColor=none;align=left;verticalAlign=top;spacingLeft=4;spacingRight=4;overflow=hidden;rotatable=0;points=[[0,0.5],[1,0.5]];portConstraint=eastwest;" vertex="1" parent="YcUkZsGcL5mmVCibDzss-2">
                    <mxGeometry y="52" width="210" height="26" as="geometry"/>
                </mxCell>
                <mxCell id="YcUkZsGcL5mmVCibDzss-5" value="- age: int" style="text;strokeColor=none;fillColor=none;align=left;verticalAlign=top;spacingLeft=4;spacingRight=4;overflow=hidden;rotatable=0;points=[[0,0.5],[1,0.5]];portConstraint=eastwest;" vertex="1" parent="YcUkZsGcL5mmVCibDzss-2">
                    <mxGeometry y="78" width="210" height="26" as="geometry"/>
                </mxCell>
                <mxCell id="YcUkZsGcL5mmVCibDzss-6" value="" style="line;strokeWidth=1;fillColor=none;align=left;verticalAlign=middle;spacingTop=-1;spacingLeft=3;spacingRight=3;rotatable=0;labelPosition=right;points=[];portConstraint=eastwest;" vertex="1" parent="YcUkZsGcL5mmVCibDzss-2">
                    <mxGeometry y="104" width="210" height="8" as="geometry"/>
                </mxCell>
                <mxCell id="YcUkZsGcL5mmVCibDzss-7" value="+ getStringAttributes(String): String" style="text;strokeColor=none;fillColor=none;align=left;verticalAlign=top;spacingLeft=4;spacingRight=4;overflow=hidden;rotatable=0;points=[[0,0.5],[1,0.5]];portConstraint=eastwest;" vertex="1" parent="YcUkZsGcL5mmVCibDzss-2">
                    <mxGeometry y="112" width="210" height="28" as="geometry"/>
                </mxCell>
                <mxCell id="YcUkZsGcL5mmVCibDzss-11" value="+ getAge(): int" style="text;strokeColor=none;fillColor=none;align=left;verticalAlign=top;spacingLeft=4;spacingRight=4;overflow=hidden;rotatable=0;points=[[0,0.5],[1,0.5]];portConstraint=eastwest;" vertex="1" parent="YcUkZsGcL5mmVCibDzss-2">
                    <mxGeometry y="140" width="210" height="26" as="geometry"/>
                </mxCell>
            </root>
        </mxGraphModel>
    </diagram>
</mxfile>